<?xml version="1.0" standalone="no"?><!DOCTYPE svg PUBLIC "-//W3C//DTD SVG 1.1//EN" "http://www.w3.org/Graphics/SVG/1.1/DTD/svg11.dtd"><svg t="1654586887991" class="icon" viewBox="0 0 1024 1024" version="1.1" xmlns="http://www.w3.org/2000/svg" p-id="1599" xmlns:xlink="http://www.w3.org/1999/xlink" width="200" height="200"><defs><style type="text/css">@font-face { font-family: feedback-iconfont; src: url("//at.alicdn.com/t/font_1031158_u69w8yhxdu.woff2?t=1630033759944") format("woff2"), url("//at.alicdn.com/t/font_1031158_u69w8yhxdu.woff?t=1630033759944") format("woff"), url("//at.alicdn.com/t/font_1031158_u69w8yhxdu.ttf?t=1630033759944") format("truetype"); }
</style></defs><path d="M512 97.28A438.72 438.72 0 1 0 950.72 536 438.72 438.72 0 0 0 512 97.28z m-145.44 228.64a88 88 0 0 1 146.88-39.36 86.4 86.4 0 0 1 22.56 39.36 87.68 87.68 0 1 1-169.44 0z m363.2 384A176 176 0 0 0 560 580a179.36 179.36 0 0 0-45.6 5.92 176 176 0 0 0-124 214.88l-84.8 22.72a263.36 263.36 0 0 1 144-306.88 210.56 210.56 0 0 1-212.8-155.84l67.2-18.24a140.32 140.32 0 1 0 272-72.64l67.84-18.08a210.72 210.72 0 0 1-106.4 241.44A263.2 263.2 0 0 1 814.56 688z" fill="#F9934A" p-id="1600"></path></svg>