<?xml version="1.0" standalone="no"?><!DOCTYPE svg PUBLIC "-//W3C//DTD SVG 1.1//EN" "http://www.w3.org/Graphics/SVG/1.1/DTD/svg11.dtd"><svg t="1654586974054" class="icon" viewBox="0 0 1024 1024" version="1.1" xmlns="http://www.w3.org/2000/svg" p-id="1830" xmlns:xlink="http://www.w3.org/1999/xlink" width="200" height="200"><defs><style type="text/css">@font-face { font-family: feedback-iconfont; src: url("//at.alicdn.com/t/font_1031158_u69w8yhxdu.woff2?t=1630033759944") format("woff2"), url("//at.alicdn.com/t/font_1031158_u69w8yhxdu.woff?t=1630033759944") format("woff"), url("//at.alicdn.com/t/font_1031158_u69w8yhxdu.ttf?t=1630033759944") format("truetype"); }
</style></defs><path d="M0.7 355.22h103.16v103.16H0.7z" fill="#F45325" p-id="1831"></path><path d="M115.12 355.22h103.16v103.16H115.12z" fill="#81BD06" p-id="1832"></path><path d="M0.7 470.24h103.16V573.4H0.7z" fill="#04A6EF" p-id="1833"></path><path d="M115.12 470.24h103.16V573.4H115.12z" fill="#FFBA07" p-id="1834"></path><path d="M355.24 495.73L316.7 399.1h-32v130.43H306V428.74l41.5 100.79H363l40.31-100.79v100.79h23.12V399.1H395z m91.89-59.88h22.53v94.27h-22.53z m74.11 0c-18.38 5.34-39.13 18.38-35.57 55.73s41.5 40.91 50.39 40.32 22.53-7.11 22.53-7.11v-19.57a33.1 33.1 0 0 1-27.86 7.71c-17.19-2.37-22.53-19-22.53-25.5S507 456 531.32 451.86c19.57-3.56 26.68 7.71 26.68 7.71v-20.75c-0.59 0-19-8.89-36.76-2.97z m75.3 15.42v-16H574.6v94.27h22.53v-46.85c0-13 1.78-24.31 13.64-27.86s18.38 3.55 18.38 3.55v-23.12c-23.72-5.33-32.61 16-32.61 16z m83.59-17.79c-29.64-0.59-42.68 21.35-42.68 21.35-20.16 48.61 9.48 76.48 39.13 76.48s49.8-17.79 50.39-49.21c0.03-30.24-17.19-48.02-46.84-48.62zM692.58 510c-8.89 4.75-31.42 7.12-37.35-13.63s1.78-35 8.3-40.32a26.7 26.7 0 0 1 17.79-4.15c10.67 1.19 20.75 5.34 22.53 22.53s-2.37 30.79-11.27 35.57z m164.82-76.52c-29.64-0.59-42.68 21.35-42.68 21.35-20.16 48.61 9.48 76.48 39.13 76.48s49.8-17.79 50.39-49.21c0-30.24-17.19-48-46.84-48.62zM869.85 510c-8.89 4.75-31.42 7.12-37.35-13.63s1.78-35 8.3-40.32a26.7 26.7 0 0 1 17.79-4.15c10.67 1.19 20.75 5.34 22.53 22.53s-2.97 30.79-11.27 35.57z m-99.6-38c-5.34-1.78-16-8.3-7.71-19 5.93-7.12 32 4.15 32 4.15V437a63 63 0 0 0-37.35-1.78c-20.75 5.34-27.28 33.2-13.64 44.47s36.17 14.23 33.2 26.68-26.08 7.7-40.31-1.19v21.94s21.34 7.7 39.13 3 25.49-17.19 23.71-32c-0.59-15.42-24.31-24.31-29-26.09zM1024 453.64v-17.79h-22.53V407.4l-21.94 7.11v20.75h-33.79v-16.6s2.37-17.19 24.31-8.89V390.2s-16.6-4.15-30.24 3.56-14.81 19.57-15.41 24.9 0 17.19 0 17.19h-16v18.38h15.4v75.3h22.53v-75.3h32.61v54s3 14.82 10.08 19.56 23.12 7.71 35 1.19v-17.2s-9.49 4.15-14.23 3c-5.33-1.19-8.3-5.93-8.3-14.83v-44.53H1024zM445.51 410.64a13 13 0 1 0 25.76-4.15 13 13 0 1 0-25.75 4.15z" fill="#777777" p-id="1835"></path></svg>